<svg version="1.0" xmlns="http://www.w3.org/2000/svg" width="933.333" height="933.333" viewBox="0 0 700 700"><path d="M390.5 21.3c-18.8 11.9-51.7 36.2-72 53.2-21.8 18.4-35.5 35.3-35.5 44.1 0 2.3 6.1 8.4 13.4 13.4 13.2 9 18.1 16.2 19.3 28.3 1.6 17.6-8.3 35.9-23.6 43.7-7.3 3.6-17.9 5.7-19.6 3.8-.6-.7-4.7-7.6-9-15.3-11.8-21-20.9-29-34.4-30.2-6.6-.6-9.6.2-22.2 5.8-9.9 4.4-15 4.9-20.8 2-6-3.1-13.4-12-18.5-22.3-5.9-11.9-15-39.4-17.9-54.3l-2.3-11.7-4.3 23.9c-14.5 79.7-16.6 96.7-14.2 112.3 1.4 9.1 5 17.2 8.5 19.5 3.6 2.4 9.5 2.1 21.7-1.1 15.7-4 21.3-2.3 34 10.5 10.2 10.4 14.4 18.6 13.6 26.9-.6 6.8-3.8 15.2-9.6 25.4-7 12.2-4.5 11.6-22.7 5.8-19.4-6.2-23.9-6.5-33.1-2-6.9 3.4-12.6 9.2-17.5 17.9-5 8.8-10.5 15.6-15.1 18.7-3.7 2.5-5.1 2.9-11.2 2.8-13.6-.2-28.9-5.8-59.7-22-11-5.8-20.1-10.4-20.3-10.2-.4.5 52.2 73.6 58.3 81.1 9.4 11.6 23.4 24.1 31.3 28.1 15 7.5 24.4 3.7 40.6-16.6 7.5-9.5 13.9-15.7 16.9-16.4 3.5-.9 13.8 1.2 19.7 3.9 10 4.6 18.4 16.2 22.1 30.2 1.8 6.8 2.4 5.9-7.4 11.4-13.4 7.6-24.2 18.8-28.1 29.1-2.3 6-2.4 12.2-.4 25 1.9 12.6 1.9 16.4-.4 20.8-2.3 4.4-8.9 11.3-14.9 15.4-11.2 7.7-38.6 18.7-63.1 25.2-5.1 1.4-9.5 2.7-9.7 2.9-.9.8 46.4 9 74.1 12.9 12 1.6 21.1 2.2 36.5 2.2 18.9.1 21-.1 27.7-2.3 8.3-2.7 14.3-7.3 17.5-13.5 2-3.7 2.3-6.1 2.8-24.1.3-13 .9-20.8 1.7-22.2.7-1.2 3.1-3.7 5.3-5.6 5.5-4.6 13.9-6.9 26-7 8.4-.1 10.2.2 15.6 2.7 3.4 1.5 7.9 4.5 9.9 6.6l3.8 3.9-2.6 5.8c-5.2 11.8-7.2 20.2-7.2 30.3 0 8.3.3 10.1 2.7 14.5 3.8 7.3 7.4 11.4 17.3 19.9 10.2 8.7 15.9 14.7 18.2 19.1 5.8 10.8-8.9 50.3-30.9 83.3-2.7 3.9-4.6 7.2-4.3 7.2.4 0 4.1-2.6 8.3-5.8 4.2-3.2 18.7-13.7 32.1-23.3 28.8-20.6 42-31 54.9-43.3 14.2-13.6 21.6-24.1 23.2-32.9 1-5.3-1.4-8.3-13-16.6-15.4-11-19.8-18.9-18.7-34.2 1.2-17.4 11.1-29.3 29.1-34.8 10.6-3.3 10.6-3.2 15 5.7 11.7 23.6 25.3 36.9 39.2 38 5.9.5 9.4-.5 21.7-5.9 4.8-2.2 10.3-3.9 12.3-3.9 15.9 0 31 26.7 46.2 81.5 1.1 3.9 2.2 6.3 2.5 5.5 1.3-3.4 6.8-30.8 10.1-50 5.1-29.8 6.7-45.4 6.7-64 0-23.9-2.1-35-7.4-38.5-2.3-1.5-3.2-1.4-12.3.5-18.8 4-21.8 4.3-27.8 2.6-6.4-1.9-14.9-8-23.2-16.7-11.5-12.1-12.4-17.5-5.3-30.9 2.5-4.7 6.2-11.1 8.3-14.3 3.4-5.4 3.9-5.8 6.4-5.2 25 6.4 43 7.6 52 3.6 6.7-3 13.2-10.2 16.2-17.8 4.2-10.6 9.5-17.9 15.2-20.9 3.8-2 11.1-1.7 19.7.6 10.5 3 33.7 13.5 55.6 25.4 10.5 5.7 19.2 10.2 19.4 10 .1-.1-5.3-8.3-12.2-18.1-6.8-9.8-19.1-27.5-27.2-39.3-18.7-27.2-25.3-35.6-35.1-45-9.1-8.6-14.5-12.1-22.8-14.5-7.2-2.1-14-1.5-21.1 2-6.4 3.1-9.3 6.2-14.6 15.5-8.8 15.7-12.5 18.5-22.8 17.8-9-.7-16-4.5-21.3-11.4-3.6-4.8-12.8-20.2-12.8-21.4 0-.3 7.9-6.2 17.5-13 9.7-6.8 19.2-14.1 21.1-16.3 7.7-8.5 8.1-14.9 2.4-37.1-2.2-8.5-4-17.8-4-20.5 0-4.4.5-5.6 3.5-8.9 7-7.8 17.7-12 57.5-22.8 15.1-4.1 28.4-7.8 29.4-8.2 3.3-1.4-66.4-12.6-94.7-15.3-16.5-1.5-44.9-.7-53.2 1.6-8.2 2.2-13.8 5.5-14.9 8.7-.7 2-.3 7.5 1.2 19.1 2.9 21.2 2 26.9-5.1 34.4-6.5 7-20.3 8.2-32.2 2.9-9.8-4.4-22.6-12.8-22-14.6 5.2-16.3 6.4-38 2.7-49.6-2.4-7.8-4.6-10.6-22.8-28.9-11.3-11.3-14.6-17.5-14.5-26.9.1-14.9 13.2-41.4 34.9-70.4 1.3-1.7 2-3.2 1.6-3.2-.5 0-5.4 2.9-10.9 6.3zm-20.7 189.3c28.6 4.2 54.6 17.8 76.7 40 22.4 22.5 35.5 47.9 40.1 77.9 1.9 12.1 1.3 40-1 51.5-6.7 32.3-23.8 59.2-50.5 79.3-16.7 12.6-34.8 20.6-56.3 24.9-16 3.2-43.6 3.2-58.5 0-44.8-9.6-85.8-43-103.2-84.2-15.3-36-12-84 8.1-118.5 22.2-38 59.7-64.5 100.8-71 11.7-1.8 31.2-1.8 43.8.1z"/><path d="M335 224.5c-.8.2-4.9.9-9 1.5-22.3 3.6-44.7 14.9-63.1 31.9-24.1 22.2-37.6 49.5-39.8 80-2.7 39.5 9 71.2 36.2 98.2 18.2 18.1 39.9 29.7 64.4 34.6 13.2 2.6 39.5 2.3 53-.6 24.9-5.3 44.7-15.8 62.1-32.9 23.4-23 34.4-48.9 35.9-84.3 1.4-33.3-9.6-62.4-33.1-87.6-21-22.6-46.5-36.2-75.1-40.3-6.3-.9-27.8-1.2-31.5-.5z"/></svg>