<?xml version="1.0" standalone="no"?>
<!DOCTYPE svg PUBLIC "-//W3C//DTD SVG 20010904//EN"
 "http://www.w3.org/TR/2001/REC-SVG-20010904/DTD/svg10.dtd">
<svg version="1.0" xmlns="http://www.w3.org/2000/svg"
 width="700.000000pt" height="700.000000pt" viewBox="0 0 700.000000 700.000000"
 preserveAspectRatio="xMidYMid meet">
<metadata>
Created by potrace 1.14, written by Peter Selinger 2001-2017
</metadata>
<g transform="translate(0.000000,700.000000) scale(0.100000,-0.100000)"
fill="#000000" stroke="none">
<path d="M3905 6787 c-188 -119 -517 -362 -720 -532 -218 -184 -355 -353 -355
-441 0 -23 61 -84 134 -134 132 -90 181 -162 193 -283 16 -176 -83 -359 -236
-437 -73 -36 -179 -57 -196 -38 -6 7 -47 76 -90 153 -118 210 -209 290 -344
302 -66 6 -96 -2 -222 -58 -99 -44 -150 -49 -208 -20 -60 31 -134 120 -185
223 -59 119 -150 394 -179 543 l-23 117 -43 -239 c-145 -797 -166 -967 -142
-1123 14 -91 50 -172 85 -195 36 -24 95 -21 217 11 157 40 213 23 340 -105
102 -104 144 -186 136 -269 -6 -68 -38 -152 -96 -254 -70 -122 -45 -116 -227
-58 -194 62 -239 65 -331 20 -69 -34 -126 -92 -175 -179 -50 -88 -105 -156
-151 -187 -37 -25 -51 -29 -112 -28 -136 2 -289 58 -597 220 -110 58 -201 104
-203 102 -4 -5 522 -736 583 -811 94 -116 234 -241 313 -281 150 -75 244 -37
406 166 75 95 139 157 169 164 35 9 138 -12 197 -39 100 -46 184 -162 221
-302 18 -68 24 -59 -74 -114 -134 -76 -242 -188 -281 -291 -23 -60 -24 -122
-4 -250 19 -126 19 -164 -4 -208 -23 -44 -89 -113 -149 -154 -112 -77 -386
-187 -631 -252 -51 -14 -95 -27 -97 -29 -9 -8 464 -90 741 -129 120 -16 211
-22 365 -22 189 -1 210 1 277 23 83 27 143 73 175 135 20 37 23 61 28 241 3
130 9 208 17 222 7 12 31 37 53 56 55 46 139 69 260 70 84 1 102 -2 156 -27
34 -15 79 -45 99 -66 l38 -39 -26 -58 c-52 -118 -72 -202 -72 -303 0 -83 3
-101 27 -145 38 -73 74 -114 173 -199 102 -87 159 -147 182 -191 58 -108 -89
-503 -309 -833 -27 -39 -46 -72 -43 -72 4 0 41 26 83 58 42 32 187 137 321
233 288 206 420 310 549 433 142 136 216 241 232 329 10 53 -14 83 -130 166
-154 110 -198 189 -187 342 12 174 111 293 291 348 106 33 106 32 150 -57 117
-236 253 -369 392 -380 59 -5 94 5 217 59 48 22 103 39 123 39 159 0 310 -267
462 -815 11 -39 22 -63 25 -55 13 34 68 308 101 500 51 298 67 454 67 640 0
239 -21 350 -74 385 -23 15 -32 14 -123 -5 -188 -40 -218 -43 -278 -26 -64 19
-149 80 -232 167 -115 121 -124 175 -53 309 25 47 62 111 83 143 34 54 39 58
64 52 250 -64 430 -76 520 -36 67 30 132 102 162 178 42 106 95 179 152 209
38 20 111 17 197 -6 105 -30 337 -135 556 -254 105 -57 192 -102 194 -100 1 1
-53 83 -122 181 -68 98 -191 275 -272 393 -187 272 -253 356 -351 450 -91 86
-145 121 -228 145 -72 21 -140 15 -211 -20 -64 -31 -93 -62 -146 -155 -88
-157 -125 -185 -228 -178 -90 7 -160 45 -213 114 -36 48 -128 202 -128 214 0
3 79 62 175 130 97 68 192 141 211 163 77 85 81 149 24 371 -22 85 -40 178
-40 205 0 44 5 56 35 89 70 78 177 120 575 228 151 41 284 78 294 82 33 14
-664 126 -947 153 -165 15 -449 7 -532 -16 -82 -22 -138 -55 -149 -87 -7 -20
-3 -75 12 -191 29 -212 20 -269 -51 -344 -65 -70 -203 -82 -322 -29 -98 44
-226 128 -220 146 52 163 64 380 27 496 -24 78 -46 106 -228 289 -113 113
-146 175 -145 269 1 149 132 414 349 704 13 17 20 32 16 32 -5 0 -54 -29 -109
-63z m-207 -1893 c286 -42 546 -178 767 -400 224 -225 355 -479 401 -779 19
-121 13 -400 -10 -515 -67 -323 -238 -592 -505 -793 -167 -126 -348 -206 -563
-249 -160 -32 -436 -32 -585 0 -448 96 -858 430 -1032 842 -153 360 -120 840
81 1185 222 380 597 645 1008 710 117 18 312 18 438 -1z"/>
<path d="M3350 4755 c-8 -2 -49 -9 -90 -15 -223 -36 -447 -149 -631 -319 -241
-222 -376 -495 -398 -800 -27 -395 90 -712 362 -982 182 -181 399 -297 644
-346 132 -26 395 -23 530 6 249 53 447 158 621 329 234 230 344 489 359 843
14 333 -96 624 -331 876 -210 226 -465 362 -751 403 -63 9 -278 12 -315 5z"/>
</g>
</svg>
